<svg width="28" height="28" viewBox="0 0 28 28" fill="none" xmlns="http://www.w3.org/2000/svg">
<path d="M23.3333 14.3199C23.3333 14.7629 23.0041 15.129 22.577 15.187L22.4583 15.1949L4.95825 15.1949C4.475 15.1949 4.08325 14.8032 4.08325 14.3199C4.08325 13.877 4.41243 13.5109 4.83952 13.4529L4.95825 13.4449L22.4583 13.4449C22.9415 13.4449 23.3333 13.8367 23.3333 14.3199Z" fill="#212121"/>
<path d="M12.6339 20.7284C12.9763 21.0694 12.9775 21.6234 12.6365 21.9658C12.3266 22.2771 11.8405 22.3064 11.4974 22.053L11.3991 21.9685L4.34076 14.9405C4.02852 14.6296 4.00011 14.1418 4.25556 13.7987L4.34071 13.7004L11.399 6.67126C11.7415 6.33026 12.2955 6.33141 12.6365 6.67382C12.9465 6.98511 12.9737 7.47128 12.7188 7.8133L12.6339 7.91126L6.19855 14.3208L12.6339 20.7284Z" fill="#212121"/>
</svg>
